<mxfile host="app.diagrams.net" modified="2024-04-29T18:06:21.552Z" agent="Mozilla/5.0 (Windows NT 10.0; Win64; x64) AppleWebKit/537.36 (KHTML, like Gecko) Chrome/124.0.0.0 Safari/537.36" etag="NxyPz70ADeruB8y9lRiH" version="24.3.1" type="github">
  <diagram name="Page-1" id="fBri3HDIZ0tgt2f0D_Jc">
    <mxGraphModel dx="934" dy="534" grid="1" gridSize="10" guides="1" tooltips="1" connect="1" arrows="1" fold="1" page="1" pageScale="1" pageWidth="850" pageHeight="1100" math="0" shadow="0">
      <root>
        <mxCell id="0" />
        <mxCell id="1" parent="0" />
        <mxCell id="bZ0tZHASzjom1n9Ya2t4-3" style="edgeStyle=orthogonalEdgeStyle;rounded=0;orthogonalLoop=1;jettySize=auto;html=1;entryX=0.5;entryY=0;entryDx=0;entryDy=0;" edge="1" parent="1" source="bZ0tZHASzjom1n9Ya2t4-1" target="bZ0tZHASzjom1n9Ya2t4-2">
          <mxGeometry relative="1" as="geometry" />
        </mxCell>
        <mxCell id="bZ0tZHASzjom1n9Ya2t4-1" value="" style="ellipse;whiteSpace=wrap;html=1;aspect=fixed;fillColor=#000000;" vertex="1" parent="1">
          <mxGeometry x="390" y="70" width="20" height="20" as="geometry" />
        </mxCell>
        <mxCell id="bZ0tZHASzjom1n9Ya2t4-5" style="edgeStyle=orthogonalEdgeStyle;rounded=0;orthogonalLoop=1;jettySize=auto;html=1;entryX=0.5;entryY=0;entryDx=0;entryDy=0;" edge="1" parent="1" source="bZ0tZHASzjom1n9Ya2t4-2" target="bZ0tZHASzjom1n9Ya2t4-4">
          <mxGeometry relative="1" as="geometry" />
        </mxCell>
        <mxCell id="bZ0tZHASzjom1n9Ya2t4-2" value="Memilih Jenis Pembayaran" style="rounded=1;whiteSpace=wrap;html=1;" vertex="1" parent="1">
          <mxGeometry x="340" y="120" width="120" height="60" as="geometry" />
        </mxCell>
        <mxCell id="bZ0tZHASzjom1n9Ya2t4-8" style="edgeStyle=orthogonalEdgeStyle;rounded=0;orthogonalLoop=1;jettySize=auto;html=1;entryX=0.5;entryY=0;entryDx=0;entryDy=0;" edge="1" parent="1" source="bZ0tZHASzjom1n9Ya2t4-4" target="bZ0tZHASzjom1n9Ya2t4-6">
          <mxGeometry relative="1" as="geometry" />
        </mxCell>
        <mxCell id="bZ0tZHASzjom1n9Ya2t4-9" style="edgeStyle=orthogonalEdgeStyle;rounded=0;orthogonalLoop=1;jettySize=auto;html=1;entryX=0.5;entryY=0;entryDx=0;entryDy=0;" edge="1" parent="1" source="bZ0tZHASzjom1n9Ya2t4-4" target="bZ0tZHASzjom1n9Ya2t4-7">
          <mxGeometry relative="1" as="geometry" />
        </mxCell>
        <mxCell id="bZ0tZHASzjom1n9Ya2t4-4" value="" style="rhombus;whiteSpace=wrap;html=1;" vertex="1" parent="1">
          <mxGeometry x="360" y="220" width="80" height="80" as="geometry" />
        </mxCell>
        <mxCell id="bZ0tZHASzjom1n9Ya2t4-13" style="edgeStyle=orthogonalEdgeStyle;rounded=0;orthogonalLoop=1;jettySize=auto;html=1;entryX=0;entryY=0.5;entryDx=0;entryDy=0;exitX=0.5;exitY=1;exitDx=0;exitDy=0;" edge="1" parent="1" source="bZ0tZHASzjom1n9Ya2t4-6" target="bZ0tZHASzjom1n9Ya2t4-12">
          <mxGeometry relative="1" as="geometry" />
        </mxCell>
        <mxCell id="bZ0tZHASzjom1n9Ya2t4-6" value="Menerima Transfer" style="rounded=1;whiteSpace=wrap;html=1;" vertex="1" parent="1">
          <mxGeometry x="180" y="300" width="120" height="60" as="geometry" />
        </mxCell>
        <mxCell id="bZ0tZHASzjom1n9Ya2t4-14" style="edgeStyle=orthogonalEdgeStyle;rounded=0;orthogonalLoop=1;jettySize=auto;html=1;entryX=1;entryY=0.5;entryDx=0;entryDy=0;exitX=0.5;exitY=1;exitDx=0;exitDy=0;" edge="1" parent="1" source="bZ0tZHASzjom1n9Ya2t4-7" target="bZ0tZHASzjom1n9Ya2t4-12">
          <mxGeometry relative="1" as="geometry" />
        </mxCell>
        <mxCell id="bZ0tZHASzjom1n9Ya2t4-7" value="Menerima Uang Tunai" style="rounded=1;whiteSpace=wrap;html=1;" vertex="1" parent="1">
          <mxGeometry x="500" y="300" width="120" height="60" as="geometry" />
        </mxCell>
        <mxCell id="bZ0tZHASzjom1n9Ya2t4-10" value="Transfer / QRIS" style="text;html=1;align=center;verticalAlign=middle;whiteSpace=wrap;rounded=0;" vertex="1" parent="1">
          <mxGeometry x="240" y="230" width="90" height="30" as="geometry" />
        </mxCell>
        <mxCell id="bZ0tZHASzjom1n9Ya2t4-11" value="Tunai" style="text;html=1;align=center;verticalAlign=middle;whiteSpace=wrap;rounded=0;" vertex="1" parent="1">
          <mxGeometry x="480" y="230" width="90" height="30" as="geometry" />
        </mxCell>
        <mxCell id="bZ0tZHASzjom1n9Ya2t4-26" style="edgeStyle=orthogonalEdgeStyle;rounded=0;orthogonalLoop=1;jettySize=auto;html=1;entryX=0.5;entryY=0;entryDx=0;entryDy=0;" edge="1" parent="1" source="bZ0tZHASzjom1n9Ya2t4-12" target="bZ0tZHASzjom1n9Ya2t4-24">
          <mxGeometry relative="1" as="geometry" />
        </mxCell>
        <mxCell id="bZ0tZHASzjom1n9Ya2t4-12" value="Pencatatan Transaksi Pembayaran" style="rounded=1;whiteSpace=wrap;html=1;" vertex="1" parent="1">
          <mxGeometry x="340" y="390" width="120" height="60" as="geometry" />
        </mxCell>
        <mxCell id="bZ0tZHASzjom1n9Ya2t4-21" value="" style="group" vertex="1" connectable="0" parent="1">
          <mxGeometry x="360" y="490" width="80" height="60" as="geometry" />
        </mxCell>
        <mxCell id="bZ0tZHASzjom1n9Ya2t4-22" value="" style="group" vertex="1" connectable="0" parent="bZ0tZHASzjom1n9Ya2t4-21">
          <mxGeometry x="25" width="30" height="30" as="geometry" />
        </mxCell>
        <mxCell id="bZ0tZHASzjom1n9Ya2t4-23" value="" style="ellipse;whiteSpace=wrap;html=1;aspect=fixed;fillColor=#000000;shadow=0;strokeColor=#ffffff;strokeWidth=0;" vertex="1" parent="bZ0tZHASzjom1n9Ya2t4-22">
          <mxGeometry width="30" height="30" as="geometry" />
        </mxCell>
        <mxCell id="bZ0tZHASzjom1n9Ya2t4-24" value="" style="ellipse;whiteSpace=wrap;html=1;aspect=fixed;fillColor=#000000;shadow=0;strokeColor=#ffffff;strokeWidth=2;" vertex="1" parent="bZ0tZHASzjom1n9Ya2t4-22">
          <mxGeometry x="5" y="5" width="20" height="20" as="geometry" />
        </mxCell>
        <mxCell id="bZ0tZHASzjom1n9Ya2t4-25" value="Keluar Fungsi" style="text;html=1;align=center;verticalAlign=middle;whiteSpace=wrap;rounded=0;" vertex="1" parent="bZ0tZHASzjom1n9Ya2t4-21">
          <mxGeometry y="30" width="80" height="30" as="geometry" />
        </mxCell>
      </root>
    </mxGraphModel>
  </diagram>
</mxfile>
